<svg xmlns="http://www.w3.org/2000/svg" xmlns:xlink="http://www.w3.org/1999/xlink" width="728.999" height="354.853" viewBox="0 0 728.999 354.853"><defs><style>.a{fill:url(#a);}</style><linearGradient id="a" x1="0.871" y1="0.618" x2="0.99" y2="-0.178" gradientUnits="objectBoundingBox"><stop offset="0" stop-color="#1c75bc"/><stop offset="1" stop-color="#65a1ba"/></linearGradient></defs><g transform="translate(-0.185 85.475) rotate(-7)"><g transform="translate(0.187 -0.004)"><path class="a" d="M91.791,143.45a98.722,98.722,0,0,1-22.765,8.759c-1.979.472-3.92,1.021-5.924,1.366s-3.984.7-5.963,1.021l-6,.664c-2,.166-4.009.243-6,.358s-4.009,0-6.014,0-3.984-.153-5.975-.306a82.911,82.911,0,0,1-11.8-1.749,153.217,153.217,0,0,0,23.314-2.413c1.915-.383,3.83-.7,5.695-1.111l5.631-1.277,5.541-1.583c1.851-.485,3.626-1.277,5.439-1.8A111.436,111.436,0,0,0,87.6,135.917l2.451-1.392c.792-.5,1.57-1.047,2.349-1.57l4.673-3.141,4.379-3.524,2.209-1.749,2.285-1.966a172.963,172.963,0,0,1,19.344-14.351A111.386,111.386,0,0,1,147,97.319a84.27,84.27,0,0,1,23.749-5.107A104.557,104.557,0,0,1,194.6,93.578c-3.945.37-7.878.664-11.759,1.162l-2.9.37-2.873.472c-1.928.268-3.83.677-5.695,1.073a97.765,97.765,0,0,0-21.706,7.265,131.832,131.832,0,0,0-19.7,11.491c-1.6,1.047-3.115,2.222-4.673,3.345s-2.962,2.26-4.494,3.486l-4.533,3.562-4.431,3.741-2.273,1.839-2.413,1.915-4.877,3.83-5.146,3.32c-.868.549-1.736,1.124-2.554,1.634ZM543.332,17.71a63.662,63.662,0,0,0,16.075.855A51.074,51.074,0,0,0,567.54,17.1l2.017-.523,1.851-.6,3.677-1.277c9.78-3.358,18.884-7.418,28.434-8.618a69.586,69.586,0,0,1,14.7-.243c5.005.357,10.023,1.277,15.168,1.992A81.857,81.857,0,0,0,618.906,2.07,55.936,55.936,0,0,0,603.074,0a61.976,61.976,0,0,0-15.858,2.554c-5.107,1.43-9.9,3.179-14.683,4.826l-3.588,1.277-1.787.6-1.685.485a53.2,53.2,0,0,1-6.882,1.519,74.053,74.053,0,0,1-14.5.421A112.45,112.45,0,0,1,529.249,9.7c-4.954-.907-9.882-2.171-14.862-3.55a72.664,72.664,0,0,0,13.789,7.214,77.259,77.259,0,0,0,15.156,4.341ZM51.725,131.639l8.465-.536c.715-.064,1.443-.089,2.158-.166l2.158-.306,4.3-.626a84.1,84.1,0,0,0,16.752-4.75,71.273,71.273,0,0,0,15.245-8.274,48.291,48.291,0,0,0,12.066-12.155,64.019,64.019,0,0,1-13.764,9.448,88.2,88.2,0,0,1-15.232,6.193,109.027,109.027,0,0,1-16.011,3.447l-4.086.447-2.03.243a13.861,13.861,0,0,0-2.056.1l-8.414.421a54.979,54.979,0,0,0-32.495,13.011A56.18,56.18,0,0,0,7.42,151.43,52.783,52.783,0,0,0,.87,167.262a73.084,73.084,0,0,1,9.167-13.968,64.085,64.085,0,0,1,5.618-5.988,58.837,58.837,0,0,1,6.256-5.184,57,57,0,0,1,29.813-10.483Zm624.969-117.7a70.5,70.5,0,0,0,4.737,23.085L678.137,0c-19.024,22.446-5.222,36.9-5.222,36.9a142.834,142.834,0,0,1,3.779-22.957ZM453.956,53.09c.843-.357,1.685-.664,2.554-1.073l2.439-1.277c1.621-.855,3.269-1.647,4.839-2.554l4.558-2.975,4.265-2.8c1.379-.868,2.681-1.839,4.111-2.554a80.845,80.845,0,0,1,8.759-4.328,98.447,98.447,0,0,1,9.231-3.435c3.2-.83,6.384-1.813,9.678-2.388a144.278,144.278,0,0,1,40.756-2.043,91.929,91.929,0,0,0-41.879-5.516,96.6,96.6,0,0,0-10.661,1.6,87.294,87.294,0,0,0-10.47,3.166,84.132,84.132,0,0,0-10.049,4.533c-1.621.843-3.128,1.941-4.7,2.9l-4.456,2.86-4.086,2.707c-1.392.843-2.873,1.558-4.3,2.362-2.8,1.711-5.95,2.834-8.938,4.29a150.319,150.319,0,0,1-19.063,6.167,212.19,212.19,0,0,1-40.7,5.477,113.329,113.329,0,0,0,42.134,1.979,111.555,111.555,0,0,0,20.952-5.107ZM612.279,21.349c-5.107.179-10.112.638-15.143,1.277-2.554.255-5.018.587-7.533.919l-3.741.511c-1.277.192-2.554.421-3.83.638s-2.554.46-3.767.779-2.554.562-3.741.868c-2.451.677-4.941,1.277-7.354,2.043s-4.877,1.481-7.265,2.273-4.814,1.622-7.214,2.426c-7.3,2.554-47.816,19.433-67.019,27.477,7.661,0,14.134.243,19.254.728a26.059,26.059,0,0,1,5.682,1.136L554.785,38.6c2.311-.919,4.635-1.851,6.971-2.732s4.66-1.762,7-2.554,4.711-1.57,7.061-2.349c1.187-.358,2.375-.677,3.562-1.021s2.375-.664,3.575-.919,2.375-.587,3.6-.843l3.664-.741c2.464-.485,4.916-.958,7.38-1.379,4.916-.881,9.87-1.609,14.824-2.183a104.417,104.417,0,0,1,29.915.332,84.038,84.038,0,0,0-14.913-2.617,128.177,128.177,0,0,0-15.181-.243Zm88.84,125.484C699.906,136.5,683.244,39.9,683.244,39.9S680.69,67.569,694.25,142.773c0,0,2.554,4.9-1.149,2.388s-5.835-3.524-9.717-.83-1.277,10.355,4.239,13.036-6.384,8.669-6.384,8.669,9.819,1.213,11.325-2.924,7.75-2.8,8.721-3.984S702.319,157.112,701.119,146.833ZM664.373,63.841s1.162,9.882,5.452,10.546,4.507-.5,7.52,9.538c0,0,1.622-12.768-.562-17.275s-12.41-2.9-12.41-2.9Zm.064,88.559a25.088,25.088,0,0,0-2.056-10.138,271.564,271.564,0,0,0-12.525-24.8s1.443-2.949,9.321-1.532a50.228,50.228,0,0,0-14.415-4.852c-7.878-1.277-26.328-22.778-17.5-39.709,8.542-16.407,18.207-21.706,18.795-21.961-.868.166-18.743,3.83-25.8,19.152-1.4.1-4.673.4-9.116,1.034h0c-9.333,1.277-23.825,4.111-37.308,9.768-10.406,4.379-20.212,10.444-26.532,18.871a33.267,33.267,0,0,0-2.643,4,34.473,34.473,0,0,0-4.482,14.811s12.27-33.363,71.373-33.58h0l5.86-.166s0,.907.089,1.673h0c.268,2.873,2.452,15.322,19.944,28.945a42.131,42.131,0,0,1,9.257,10.023,143.566,143.566,0,0,1,10.98,19.676,20.888,20.888,0,0,1,1.634,8.733c-.077,5.324,1.749,14.543,15.449,14.045,0,.051-10.214-3.549-10.317-14.083ZM402.462,65h0v.115h0l1.685-.153Zm0,0v.115l1.685-.153ZM172.127,200.919a46.093,46.093,0,0,0-.511-6.078,59.286,59.286,0,0,0-.958-6c-.46-1.966-.855-3.945-1.392-5.9s-1.162-3.83-1.775-5.771l-.907-2.771c-.281-.894-.536-1.8-.741-2.72a39.3,39.3,0,0,1-.868-5.58,32.238,32.238,0,0,1,.089-5.656,34.051,34.051,0,0,1,.983-5.656,29.942,29.942,0,0,1,4.929-10.521,25.4,25.4,0,0,0-6.895,9.87A33.363,33.363,0,0,0,161.7,166.2a32.584,32.584,0,0,0,.523,6.205c.179,1.034.409,2.043.664,3.052l.8,2.924c.511,1.877,1.06,3.741,1.6,5.618s.817,3.83,1.277,5.669.677,3.83,1.009,5.72c.115.958.345,1.9.383,2.86s.14,1.928.23,2.886a69.365,69.365,0,0,1,0,11.491,53.622,53.622,0,0,1-2.388,11.274l-.268.7a37.231,37.231,0,0,0-1.877-12.27q-2.068-6.32-3.664-12.768c-.485-2.158-.958-4.3-1.277-6.5-.153-1.085-.306-2.2-.357-3.294a10.953,10.953,0,0,1,.179-3.294,11.032,11.032,0,0,0-.664,3.281,33.408,33.408,0,0,0-.128,3.4c.064,2.234.255,4.482.511,6.716.523,4.482,1.392,8.938,2.337,13.279a31.92,31.92,0,0,1,.638,12.462,18.385,18.385,0,0,1-1.953,5.567,12.636,12.636,0,0,1-.8,1.277,9.534,9.534,0,0,1-.843,1.187l-1,1.085-.5.549-.575.472a35.24,35.24,0,0,1-10.687,6,87.436,87.436,0,0,1-12.423,3.511c-8.618,1.941-17.62,3.741-26.226,7.661a39.479,39.479,0,0,0-11.976,8.363,28.448,28.448,0,0,0-5.605,8.708h16.037s-1.851-9.882,21.489-15.322c22.038-5.107,28.715-8.555,35.087-17.99l.1-.128a15.621,15.621,0,0,0,1.009-1.57,18.758,18.758,0,0,0,.945-1.634,28.088,28.088,0,0,0,1.43-4c.46-.651.894-1.277,1.353-2l1.494-2.669a45.416,45.416,0,0,0,3.728-11.619l.434-3.026.192-1.519.064-1.532A54.065,54.065,0,0,0,172.127,200.919ZM290.155,190.87l-.6,3.588-.843,3.575-.383,1.162s-6.448,32.188-51.787,47.829-54.685,22.982-54.685,22.982H163.509l6.933-3.894.779-.447,1.124-.664c4.162-2.477,8.452-4.865,12.87-7.086s8.938-4.2,13.547-6.014,9.27-3.2,13.853-4.724,9.116-3.064,13.649-4.648A211.215,211.215,0,0,0,252.643,231.5a110.338,110.338,0,0,0,12.193-7.252,72.921,72.921,0,0,0,10.891-8.938,53.919,53.919,0,0,0,14.364-24.438Zm-1.839,8.312-.179.549A2.154,2.154,0,0,1,288.316,199.182Zm308.169,68.794c-2.273-3.5-4.737-6.869-7.3-10.151a173.655,173.655,0,0,0-14.67-16.6A137.5,137.5,0,0,0,557.2,226.365c-.294-1.021-.549-2.068-.881-3.09a33.464,33.464,0,0,0-.613-3.562,45.961,45.961,0,0,0-4.865-12.091,86.744,86.744,0,0,0-15.845-19.688,133.187,133.187,0,0,0-19.573-15.475,164.028,164.028,0,0,1,17.786,17.186,107.07,107.07,0,0,1,7.661,9.589,76,76,0,0,1,6.231,10.355,42.272,42.272,0,0,1,3.728,11.121q.128.8.23,1.609c-6.1-3.715-19.267-10.942-28.23-10.061-11.989,1.187-15.82,1.456-15.82,1.456l3.422,5.4a103.423,103.423,0,0,0,15.564-1.979,6.755,6.755,0,0,1,3.23.153c3.664.919,7,3.256,9.985,5.49,3.447,2.554,6.524,5.618,9.921,8.261.434.345.855.7,1.277,1.034a25.206,25.206,0,0,1-5.209,9.512l-.945,1.06-1,1.021a19.133,19.133,0,0,1-2.03,1.8,21.466,21.466,0,0,1-4.648,2.783,23.657,23.657,0,0,1-5.184,1.6,24.521,24.521,0,0,1-2.707.345l-3.077.192c-4.188.268-8.376.651-12.538,1.175-8.3,1-16.662,2.439-24.77,4.137s-16.152,3.154-24.259,4.533l-12.3,2.043c-2.273.37-4.558.741-6.831,1.085l.153-.4q1.072-2.758,2.311-5.439a73.834,73.834,0,0,1,5.733-10.214,47.488,47.488,0,0,1,3.537-4.545,22.267,22.267,0,0,1,4.047-3.677,21.361,21.361,0,0,1,10.214-3.664,21.974,21.974,0,0,1,5.567.2,27.262,27.262,0,0,1,2.8.638l2.962.8c3.971,1.047,7.942,2.03,11.951,2.949s8.031,1.711,12.1,2.337a54.916,54.916,0,0,0,6.154.626,17.007,17.007,0,0,0,3.116-.115,4.545,4.545,0,0,0,1.507-.447,1.52,1.52,0,0,0,.575-.562,1.136,1.136,0,0,0,0-.766,1.009,1.009,0,0,1-.715,1.136,4.3,4.3,0,0,1-1.456.243,16.9,16.9,0,0,1-3-.255c-2-.319-3.984-.779-5.95-1.277-3.933-1.009-7.814-2.247-11.7-3.46s-7.661-2.554-11.568-3.92l-2.873-1a29.021,29.021,0,0,0-3.141-.932,26.111,26.111,0,0,0-6.614-.689A25.09,25.09,0,0,0,457.8,234.7a27.626,27.626,0,0,0-5.209,4.277,51.141,51.141,0,0,0-4.226,4.916,70.379,70.379,0,0,0-6.716,10.866q-1.417,2.834-2.656,5.758c-.817,1.966-1.571,3.83-2.273,6.014l-1.57,4.89,5.235-.613c4.162-.485,8.261-1.021,12.4-1.583s8.223-1.277,12.334-1.864c8.21-1.341,16.42-2.72,24.591-4.431s16.049-3.2,24.183-4.277c4.06-.511,8.12-1.009,12.193-1.392l3.1-.294a34.455,34.455,0,0,0,3.447-.523,29.991,29.991,0,0,0,6.588-2.26,27.578,27.578,0,0,0,5.886-3.754,25.143,25.143,0,0,0,2.554-2.388l1.124-1.277,1.073-1.277a31.692,31.692,0,0,0,5.107-9.512l.2.179v.153c.217,1.443.255,2.911.357,4.379l.255,4.367v8.606c-.14,1.175-.217,2.171-.255,3.256s0,2.209,0,3.332a44.6,44.6,0,0,0,.779,6.7c.14.689.294,1.379.485,2.068h7.086a21.811,21.811,0,0,1-1.277-3.588,33.586,33.586,0,0,1-1.1-5.592c-.1-.958-.179-1.928-.2-2.9s0-1.966,0-2.783v-.332c-.217-3.039-.383-6.078-.651-9.1l-.6-4.367c2.3,2.081,4.571,4.188,6.767,6.384a216.556,216.556,0,0,1,19.714,22.306h10.546a5.974,5.974,0,0,1-.638-1.06ZM185.942,181.307a5.273,5.273,0,0,0,8.7-5.963v-.077a49.335,49.335,0,0,1-8.555-22.153,40.96,40.96,0,0,1,3.894-22.982,50.752,50.752,0,0,1,15.577-18.156A68.253,68.253,0,0,1,216.1,105.5a81.264,81.264,0,0,1,11.606-4.6,85.673,85.673,0,0,1,24.757-3.83,89.712,89.712,0,0,1,12.525.907,107.731,107.731,0,0,1,12.385,2.694,187.567,187.567,0,0,1,24.259,9.091c8.044,3.549,16.088,7.239,24.055,11.019s15.883,7.661,23.749,11.683,15.6,8.159,23.48,12.334c15.743,8.325,31.92,16.241,49.208,21.859,4.3,1.417,8.682,2.554,13.113,3.69a132.88,132.88,0,0,0,13.509,2.413,95.658,95.658,0,0,0,13.815.715H464.3l1.749-.128c1.162-.089,2.324-.14,3.473-.268,2.324-.319,4.635-.575,6.92-1.111a63.993,63.993,0,0,0,43.807-32.546,61.286,61.286,0,0,0,7.2-26.992,57.261,57.261,0,0,0-1.4-14.045c-.268-1.149-.638-2.285-.958-3.422a29.15,29.15,0,0,0-1.187-3.358,31.934,31.934,0,0,0-1.4-3.294c-.268-.536-.524-1.085-.817-1.622l-.907-1.558a43.654,43.654,0,0,0-9.321-10.827,54.343,54.343,0,0,0-11.81-7.661,74.169,74.169,0,0,0-26.711-6.92,82.226,82.226,0,0,0-27.336,2.656A77.4,77.4,0,0,0,432.672,67.2c-4.06,1.979-8.057,4.047-11.938,6.32-15.577,9.027-29.762,20.059-43.22,31.716-6.742,5.835-13.292,11.861-19.739,17.977-3.269,3.026-6.282,6.18-9.716,8.938l-10.023,8.708L318.015,158.3c-6.729,5.809-13.2,11.887-20.046,17.377a115.684,115.684,0,0,1-10.649,7.661,125.866,125.866,0,0,1-11.491,6.384A103.561,103.561,0,0,1,251,198.263a69.485,69.485,0,0,1-26.187.357,56.69,56.69,0,0,1-23.851-10.942,55.924,55.924,0,0,0,23.672,11.81,70.455,70.455,0,0,0,26.672.447,104.7,104.7,0,0,0,25.536-7.954,128.654,128.654,0,0,0,11.938-6.167,118.478,118.478,0,0,0,11.146-7.546c7.137-5.439,13.764-11.338,20.595-16.943l20.429-17.173,10.214-8.593c3.447-2.771,6.6-6,9.87-8.938,6.473-6.027,13.036-11.938,19.752-17.645,13.432-11.4,27.49-22.1,42.7-30.72,3.83-2.171,7.661-4.137,11.619-6a70.686,70.686,0,0,1,12.015-4.341A75.9,75.9,0,0,1,472.5,65.692a67.9,67.9,0,0,1,24.413,6.55,48.4,48.4,0,0,1,10.38,6.92,37.512,37.512,0,0,1,7.878,9.308l.753,1.277c.243.447.434.907.651,1.366a22.99,22.99,0,0,1,1.175,2.822,21.3,21.3,0,0,1,1,2.924c.268,1,.587,1.979.817,2.988a50.559,50.559,0,0,1,1.136,12.385,54.558,54.558,0,0,1-6.627,23.863,60.366,60.366,0,0,1-7.137,10.214l-2.158,2.26c-.358.37-.7.753-1.085,1.124l-1.162,1.034c-.792.689-1.545,1.4-2.349,2.068l-2.554,1.89a25.462,25.462,0,0,1-2.554,1.775c-.894.536-1.736,1.149-2.656,1.647l-2.72,1.494-.689.37-.715.319-1.43.613a61.53,61.53,0,0,1-5.835,2.2c-2.017.511-4,1.149-6.078,1.468a62.661,62.661,0,0,1-6.205.932c-1.047.115-2.107.14-3.154.217l-1.57.1h-1.583a86.89,86.89,0,0,1-12.768-.792,123.449,123.449,0,0,1-12.628-2.388c-4.175-1.06-8.337-2.234-12.436-3.626-16.458-5.541-32.188-13.381-47.689-21.706-7.737-4.2-15.577-8.516-23.468-12.615s-15.858-8.133-23.863-12.027-16.049-7.661-24.259-11.376a189.824,189.824,0,0,0-25.447-9.729,114.52,114.52,0,0,0-13.56-3.026,98.1,98.1,0,0,0-13.968-1.1,94.7,94.7,0,0,0-27.643,4.06A90.655,90.655,0,0,0,211.581,96.6a81.333,81.333,0,0,0-12.142,7.354,68.707,68.707,0,0,0-10.6,9.627,55,55,0,0,0-8.2,12.079,51.327,51.327,0,0,0-5.043,28.677,59.6,59.6,0,0,0,10.214,27.017Z" transform="translate(-0.87 0.004)"/></g></g></svg>